<svg xmlns="http://www.w3.org/2000/svg" viewBox="0 0 1089.91 1582.25"><defs><style>.cls-1{stroke:#fff;stroke-miterlimit:10;stroke-width:15px;}</style></defs><title>Asset 1</title><g id="Layer_2" data-name="Layer 2"><g id="Layer_2-2" data-name="Layer 2"><path class="cls-1" d="M565.09,1119.63c4.65-10.55,10.1-21.62,19-29.27,9.13-7.86,20.24-9.88,31.84-7.14,11,2.61,23.59,11,35.19,7.83s14.45-17.31,14.14-27.76c-.47-16.14-6.46-31.78-15.71-44.89-3.71-5.27,5-10.27,8.64-5a93.32,93.32,0,0,1,16.21,40.73c1.71,12.11,1.29,25.84-6,36.21s-19.43,12.92-31.34,10.11-24.6-11.23-37.12-7.71c-13.83,3.89-20.89,20-26.17,32C571.13,1130.55,562.51,1125.47,565.09,1119.63Z"/><path class="cls-1" d="M569.16,1271.11a57.11,57.11,0,0,0,38.84,10.3c15.06-1.42,27.46-8.82,37.53-19.82,5.26-5.76,10-12,15.42-17.59a118,118,0,0,1,15.74-13.26c10.47-7.64,23-15.21,27.65-28,2.19-6,11.86-3.4,9.64,2.66-5.28,14.44-17.31,23.21-29.33,31.87a119,119,0,0,0-18.35,15.62c-5.84,6.35-11,13.29-17.15,19.38-22.35,22.26-59.13,26-85,7.48C558.92,1276,563.91,1267.36,569.16,1271.11Z"/><path class="cls-1" d="M548.06,1375.52a65.47,65.47,0,0,0,46.28.66c15.22-5.57,28.12-17.61,40.55-27.7,20.92-17,41.65-36.1,53.43-60.66a3.93,3.93,0,0,1,.47-4.5l3.42-4.56c3.07-4.09,11.35-1.93,9.14,3.86-11.93,31.26-36.33,54.43-61.89,75-13.38,10.74-26.83,22.8-43.25,28.53a74.27,74.27,0,0,1-50.81-.94C539.46,1382.87,542,1373.2,548.06,1375.52Z"/><path class="cls-1" d="M734.3,1286c7.13-33,32.69-57.45,42.48-89.27,5.78-18.79,4.54-38.61,4.93-58,.16-8.17-.73-19,4.08-26.06,4-5.91,11.19-8.58,15.38-14.5,8.8-12.42,9.08-31-.81-42.87-4.08-4.91,3-12,7.07-7.07a46.22,46.22,0,0,1-.74,59,44.73,44.73,0,0,1-7.85,6.88c-4.22,3.07-6,5.37-6.48,10.65-2,20.52.4,41.2-2.94,61.66-2.89,17.73-11.1,33.61-20.17,48.91-10.07,17-21.08,33.74-25.31,53.32C742.58,1295,732.94,1292.32,734.3,1286Z"/><path class="cls-1" d="M602.25,1510.41c16.12,5.95,34.79.47,49.91-6.2a122.93,122.93,0,0,0,37.5-25.7c23.64-23.76,35.92-56.9,34.58-90.28-.26-6.43,9.74-6.42,10,0A131.58,131.58,0,0,1,648,1516.56c-15.21,5.52-32.77,9.27-48.43,3.49C593.61,1517.84,596.2,1508.17,602.25,1510.41Z"/><path class="cls-1" d="M676.83,1562.45c12.79-4.6,24.88,1.55,37.66,2.36,13.1.84,22.25-7.86,30.6-16.82,8.2-8.81,16.4-17.23,26-24.54a281.88,281.88,0,0,1,32.53-20.78c22-12.39,44.76-23.69,64.48-39.71,19.22-15.61,35.81-34.25,50.43-54.17,29.2-39.79,51.37-84.09,77.37-125.91,14.84-23.88,31.25-46.82,44.48-71.67a252.41,252.41,0,0,0,26.6-81.56c4.74-31.56,4.28-63.81,1.51-95.52a838.34,838.34,0,0,0-15.58-101c-1.33-6.27,8.31-9,9.65-2.65,12.39,58.36,21.66,119.46,16.71,179.23-2.39,28.89-8.38,57.49-19.63,84.27-11.15,26.53-27.09,50.55-42.72,74.59-28.22,43.39-51.54,89.84-80.76,132.58-14.17,20.72-29.87,40.58-48.24,57.76-18.65,17.45-39.88,30.75-62.18,43-25.63,14.09-50.53,28-70.5,49.8-8.7,9.5-18.33,20-31.58,22.55-14.82,2.85-29.85-7.3-44.18-2.15C673.42,1574.27,670.81,1564.61,676.83,1562.45Z"/><path class="cls-1" d="M663.32,808.93c7,10.55,19.72,14.68,31,19,12.2,4.62,24.19,9.79,32.81,20,9.22,10.89,14.24,24.33,21.73,36.32a80.76,80.76,0,0,0,28.94,27.27c23.6,13.37,52.54,16.53,79,11.53,32.86-6.21,62.49-22.67,90.22-40.72,15-9.73,31.73-19.42,42.88-33.67s14.46-33.22,9.72-50.47a5,5,0,0,1,6.15-6.15c10.74,3,21.46,6.07,32.24,8.9,3.88,1,9.75,2.73,12.59-1.17,2.69-3.69,2.46-10,2.85-14.35a319.9,319.9,0,0,0-1.27-68.54c-.8-6.36,9.21-6.31,10,0a323,323,0,0,1,2.56,40.52c0,13.08-.26,26.73-2.65,39.62-2,10.81-10.18,16.33-21,14.77-10.1-1.45-20.19-4.77-30.12-7.79a68.49,68.49,0,0,1-5.91,39c-7.26,15.33-20.69,26-34.33,35.48-28.8,19.93-59.12,39.27-92.85,49.66-29,8.93-60.64,10.14-89.31-.63a100.73,100.73,0,0,1-35.65-22.22c-10.91-10.79-17.1-24.26-24.46-37.47-4.14-7.45-8.92-14.76-15.86-19.91-6.27-4.65-13.69-7.52-20.94-10.26-14-5.3-28.34-10.54-37-23.55C651.12,808.6,659.78,803.59,663.32,808.93Z"/><path class="cls-1" d="M841.76,72a483.66,483.66,0,0,1,55.13-63,5.06,5.06,0,0,1,7.07,0c51,56.17,99,117.06,123,190,22.14,67.35,24.44,141,7.88,209.83A370.81,370.81,0,0,1,989,518.56c-3.41,5.45-12.06.43-8.64-5,36.77-58.76,55.53-127.74,55.37-196.95-.16-71.22-21-139.54-59.11-199.56-22.15-34.9-48.71-66.68-76.36-97.33-68.37,67.09-115.45,154.7-134.6,248.52a469.2,469.2,0,0,0-9.3,82.2c-.16,6.42-10.17,6.44-10,0C748.8,250.7,782.77,152.32,841.76,72Z"/><path class="cls-1" d="M576.48,740.42A76.5,76.5,0,0,0,631,744.26a73.27,73.27,0,0,0,24.15-12.47c7.69-6,14.89-12.64,24.85-14.32,9.42-1.59,19.19-.27,28.7-.76a170.73,170.73,0,0,0,28.3-3.84,183.25,183.25,0,0,0,52.22-20.3,179.16,179.16,0,0,0,48.66-41.22c3.58-4.34,11.11,1.41,7.85,6.06l-4,5.76a5.09,5.09,0,0,1-2.57,2,190.63,190.63,0,0,1-121,60.85c-10.3,1.08-20.45.54-30.76.8-11.89.3-19,7.55-27.95,14.27a82.48,82.48,0,0,1-25,12.63,87,87,0,0,1-63-4.63C565.62,746.29,570.69,737.66,576.48,740.42Z"/><path class="cls-1" d="M1066.2,1356.57c4.2-15.91,7-31.86,6.06-48.38-1-17-5-33.63-9.13-50.1l-1.87-.14c-6.37-.5-6.42-10.5,0-10l5.84.45a5.13,5.13,0,0,1,4.82,3.67c4.35,17.22,8.63,34.55,10.08,52.3,1.33,16.31-.64,32.33-4.47,48.19-7.27,30.1-21.11,61-14.8,92.51,1.26,6.29-8.37,9-9.64,2.66C1046.82,1416.44,1058.31,1386.42,1066.2,1356.57Z"/><path class="cls-1" d="M524.82,1119.63c-4.65-10.55-10.09-21.62-19-29.27-9.14-7.86-20.25-9.88-31.85-7.14-11,2.61-23.59,11-35.19,7.83s-14.45-17.31-14.14-27.76c.47-16.14,6.47-31.78,15.71-44.89,3.71-5.27-4.95-10.27-8.64-5a93.44,93.44,0,0,0-16.21,40.73c-1.71,12.11-1.28,25.84,6.05,36.21s19.43,12.92,31.34,10.11,24.6-11.23,37.12-7.71c13.83,3.89,20.89,20,26.17,32C518.78,1130.55,527.4,1125.47,524.82,1119.63Z"/><path class="cls-1" d="M520.75,1271.11a57.11,57.11,0,0,1-38.84,10.3c-15.06-1.42-27.46-8.82-37.53-19.82-5.26-5.76-10-12-15.41-17.59a118.12,118.12,0,0,0-15.75-13.26c-10.47-7.64-23-15.21-27.65-28-2.19-6-11.86-3.4-9.64,2.66,5.28,14.44,17.31,23.21,29.33,31.87a118.5,118.5,0,0,1,18.35,15.62c5.85,6.35,11,13.29,17.15,19.38,22.35,22.26,59.14,26,85,7.48C531,1276,526,1267.36,520.75,1271.11Z"/><path class="cls-1" d="M541.85,1375.52a65.44,65.44,0,0,1-46.27.66c-15.23-5.57-28.12-17.61-40.55-27.7-20.93-17-41.66-36.1-53.44-60.66a3.93,3.93,0,0,0-.47-4.5l-3.42-4.56c-3.07-4.09-11.35-1.93-9.14,3.86,11.93,31.26,36.33,54.43,61.9,75,13.37,10.74,26.82,22.8,43.24,28.53a74.27,74.27,0,0,0,50.81-.94C550.45,1382.87,547.87,1373.2,541.85,1375.52Z"/><path class="cls-1" d="M355.61,1286c-7.12-33-32.69-57.45-42.47-89.27-5.79-18.79-4.55-38.61-4.94-58-.16-8.17.73-19-4.07-26.06-4-5.91-11.2-8.58-15.39-14.5-8.8-12.42-9.08-31,.81-42.87,4.08-4.91-2.95-12-7.07-7.07a45.65,45.65,0,0,0-9,39.83,45.19,45.19,0,0,0,9.74,19.19,44.73,44.73,0,0,0,7.85,6.88c4.23,3.07,6,5.37,6.48,10.65,2,20.52-.4,41.2,2.94,61.66,2.89,17.73,11.1,33.61,20.17,48.91,10.08,17,21.08,33.74,25.31,53.32C347.33,1295,357,1292.32,355.61,1286Z"/><path class="cls-1" d="M487.66,1510.41c-16.12,5.95-34.79.47-49.91-6.2a122.93,122.93,0,0,1-37.5-25.7c-23.64-23.76-35.92-56.9-34.58-90.28.26-6.43-9.74-6.42-10,0a131.58,131.58,0,0,0,86.22,128.33c15.21,5.52,32.77,9.27,48.43,3.49C496.3,1517.84,493.72,1508.17,487.66,1510.41Z"/><path class="cls-1" d="M413.09,1562.45c-12.79-4.6-24.89,1.55-37.66,2.36-13.11.84-22.26-7.86-30.6-16.82-8.21-8.81-16.41-17.23-26-24.54a281.88,281.88,0,0,0-32.53-20.78c-22-12.39-44.76-23.69-64.47-39.71-19.22-15.61-35.82-34.25-50.44-54.17C142.17,1369,120,1324.7,94,1282.88c-14.84-23.88-31.25-46.82-44.48-71.67a252.41,252.41,0,0,1-26.6-81.56c-4.74-31.56-4.28-63.81-1.5-95.52A838.32,838.32,0,0,1,37,933.11c1.33-6.27-8.3-9-9.64-2.65C15,988.82,5.68,1049.92,10.63,1109.69,13,1138.58,19,1167.18,30.26,1194c11.15,26.53,27.1,50.55,42.73,74.59,28.21,43.39,51.53,89.84,80.76,132.58,14.16,20.72,29.87,40.58,48.23,57.76,18.65,17.45,39.88,30.75,62.18,43,25.64,14.09,50.53,28,70.5,49.8,8.7,9.5,18.34,20,31.58,22.55,14.83,2.85,29.85-7.3,44.19-2.15C416.49,1574.27,419.11,1564.61,413.09,1562.45Z"/><path class="cls-1" d="M426.59,808.93c-7,10.55-19.72,14.68-31,19-12.2,4.62-24.19,9.79-32.81,20-9.22,10.89-14.24,24.33-21.73,36.32a80.68,80.68,0,0,1-28.94,27.27c-23.6,13.37-52.54,16.53-79,11.53-32.85-6.21-62.49-22.67-90.22-40.72-15-9.73-31.73-19.42-42.88-33.67s-14.45-33.22-9.72-50.47A5,5,0,0,0,84.18,792c-10.74,3-21.46,6.07-32.24,8.9-3.88,1-9.75,2.73-12.59-1.17-2.68-3.69-2.46-10-2.85-14.35a320.55,320.55,0,0,1,1.27-68.54c.8-6.36-9.21-6.31-10,0a323,323,0,0,0-2.55,40.52c0,13.08.25,26.73,2.64,39.62,2,10.81,10.18,16.33,21,14.77,10.1-1.45,20.2-4.77,30.12-7.79a68.41,68.41,0,0,0,5.92,39c7.25,15.33,20.68,26,34.32,35.48C148,898.29,178.3,917.63,212,928c29,8.93,60.64,10.14,89.32-.63A100.69,100.69,0,0,0,337,905.17c10.91-10.79,17.11-24.26,24.46-37.47,4.15-7.45,8.92-14.76,15.86-19.91,6.27-4.65,13.7-7.52,20.94-10.26,14-5.3,28.34-10.54,37-23.55C438.79,808.6,430.14,803.59,426.59,808.93Z"/><path class="cls-1" d="M248.16,72A484.49,484.49,0,0,0,193,8.94a5.06,5.06,0,0,0-7.07,0c-51,56.17-99,117.06-123,190-22.14,67.35-24.44,141-7.87,209.83A370.52,370.52,0,0,0,101,518.56c3.41,5.45,12.07.43,8.64-5C72.83,454.76,54.07,385.78,54.23,316.57c.16-71.22,21-139.54,59.11-199.56,22.15-34.9,48.72-66.68,76.36-97.33,68.37,67.09,115.45,154.7,134.6,248.52a469.22,469.22,0,0,1,9.31,82.2c.16,6.42,10.16,6.44,10,0C341.11,250.7,307.14,152.32,248.16,72Z"/><path class="cls-1" d="M513.43,740.42a76.49,76.49,0,0,1-54.55,3.84,73.27,73.27,0,0,1-24.15-12.47c-7.69-6-14.89-12.64-24.85-14.32-9.42-1.59-19.19-.27-28.7-.76a170.87,170.87,0,0,1-28.3-3.84,183.36,183.36,0,0,1-52.22-20.3A179.31,179.31,0,0,1,252,651.35c-3.58-4.34-11.11,1.41-7.85,6.06l4,5.76a5.09,5.09,0,0,0,2.57,2,190.61,190.61,0,0,0,121,60.85c10.29,1.08,20.45.54,30.75.8,11.89.3,19,7.55,27.95,14.27a82.54,82.54,0,0,0,25,12.63,87,87,0,0,0,63-4.63C524.29,746.29,519.22,737.66,513.43,740.42Z"/><path class="cls-1" d="M23.72,1356.57c-4.21-15.91-7-31.86-6.07-48.38,1-17,5-33.63,9.13-50.1l1.87-.14c6.37-.5,6.43-10.5,0-10l-5.84.45a5.13,5.13,0,0,0-4.82,3.67c-4.34,17.22-8.63,34.55-10.08,52.3-1.33,16.31.65,32.33,4.47,48.19,7.27,30.1,21.11,61,14.8,92.51-1.26,6.29,8.38,9,9.64,2.66C43.09,1416.44,31.61,1386.42,23.72,1356.57Z"/></g></g></svg>